<?xml version="1.0" encoding="UTF-8"?>
<svg version="1.1" xmlns="http://www.w3.org/2000/svg" width="512" height="512">
<path d="M0 0 C0.96941528 -0.00012085 1.93883057 -0.0002417 2.93762207 -0.00036621 C15.89910621 0.02248418 28.69730961 0.50859584 41.5625 2.125 C42.83826904 2.28178223 44.11403809 2.43856445 45.4284668 2.60009766 C53.08588011 3.68723876 60.34394793 5.09345326 66.43359375 10.12890625 C73.18646567 19.40659081 73.18765148 30.76724756 71.91796875 41.8046875 C68.58510814 62.14588836 57.19624424 80.85491268 40.5 93 C18.06339649 108.06986263 -11.46896079 111.83522357 -37.64819336 115.98950195 C-39.8772215 116.36351147 -39.8772215 116.36351147 -42.6875 117.375 C-41.541604 117.74262451 -40.39570801 118.11024902 -39.21508789 118.48901367 C-34.97200941 119.85638673 -30.73838251 121.25119257 -26.50708008 122.65454102 C-24.67328594 123.25844435 -22.83700308 123.8548437 -20.99829102 124.44360352 C-18.35786084 125.29050707 -15.72751357 126.16386483 -13.09765625 127.04296875 C-12.27161392 127.30152145 -11.44557159 127.56007416 -10.59449768 127.82646179 C-8.48644398 128.54666312 -6.59092044 129.21727928 -4.6875 130.375 C-3.66186523 133.08325195 -3.66186523 133.08325195 -3.6875 135.375 C-8.05956836 139.14524519 -12.81133842 141.91715445 -17.8125 144.75 C-18.72410889 145.26747803 -19.63571777 145.78495605 -20.57495117 146.31811523 C-49.00297119 162.31051433 -78.19520008 175.83373184 -108.6875 187.375 C-109.69651367 187.75817383 -110.70552734 188.14134766 -111.74511719 188.53613281 C-124.57197284 193.38125858 -137.50664723 197.60087296 -150.6875 201.375 C-149.12432482 201.70093785 -147.56036385 202.02310815 -145.99609375 202.34375 C-145.12525146 202.52357422 -144.25440918 202.70339844 -143.35717773 202.88867188 C-140.11087953 203.48004142 -136.88595969 203.79253469 -133.59765625 204.03125 C-131.6875 204.375 -131.6875 204.375 -128.6875 206.375 C-129.21100098 210.91423547 -129.21100098 210.91423547 -131.27709961 212.91210938 C-131.97843018 213.34330078 -132.67976074 213.77449219 -133.40234375 214.21875 C-134.21944824 214.7240625 -135.03655273 215.229375 -135.87841797 215.75 C-140.67671662 218.52572361 -145.51304971 221.22293954 -150.38659668 223.86431885 C-160.32807051 229.25642055 -170.19058382 234.76200799 -179.9375 240.5 C-187.96679551 245.22618477 -196.04576938 249.84515685 -204.1875 254.375 C-213.66810146 259.65180563 -223.09270189 265.01487906 -232.41943359 270.56005859 C-240.55462294 275.38528262 -240.55462294 275.38528262 -244.80859375 277.328125 C-255.64758034 282.49990455 -260.69259574 290.93094091 -267.03222656 300.82373047 C-269.4739781 304.58719707 -272.07637845 308.22804367 -274.6875 311.875 C-275.66778966 313.25962229 -276.64694328 314.64504953 -277.625 316.03125 C-278.12 316.7325 -278.615 317.43375 -279.125 318.15625 C-281.98859861 322.22256003 -284.83751243 326.29914441 -287.6875 330.375 C-292.48183581 337.23152828 -297.29286855 344.07579293 -302.12426758 350.90625 C-304.93125057 354.87767729 -307.72644825 358.85705831 -310.51171875 362.84375 C-311.15431641 363.76349609 -311.79691406 364.68324219 -312.45898438 365.63085938 C-313.71770353 367.43361209 -314.97554359 369.23697898 -316.23242188 371.04101562 C-316.79896484 371.85248047 -317.36550781 372.66394531 -317.94921875 373.5 C-318.45412842 374.22445313 -318.95903809 374.94890625 -319.47924805 375.6953125 C-320.6875 377.375 -320.6875 377.375 -321.6875 378.375 C-311.86792134 380.6057964 -301.93369883 381.59990997 -291.9375 382.6875 C-290.97307983 382.79349518 -290.00865967 382.89949036 -289.01501465 383.00869751 C-203.06950789 393.38877588 -203.06950789 393.38877588 -116.6875 392.5625 C-115.15367676 392.42775269 -115.15367676 392.42775269 -113.58886719 392.2902832 C-92.48254114 391.01497519 -92.48254114 391.01497519 -74.9140625 381.33203125 C-72.77489464 377.91890036 -72.49648251 376.24326132 -73.375 372.25 C-74.902163 368.9047858 -75.45805093 368.78262701 -78.6875 367.375 C-79.4727002 366.98513916 -80.25790039 366.59527832 -81.06689453 366.19360352 C-87.77348449 362.99853572 -94.32698855 360.93783944 -101.5625 359.3125 C-102.63443604 359.06209961 -103.70637207 358.81169922 -104.81079102 358.55371094 C-112.93353371 356.68701972 -121.09740388 355.0650025 -129.31396484 353.66772461 C-130.12687988 353.52471924 -130.93979492 353.38171387 -131.77734375 353.234375 C-132.48753662 353.11545898 -133.19772949 352.99654297 -133.92944336 352.87402344 C-135.6875 352.375 -135.6875 352.375 -137.6875 350.375 C-138.25404223 344.14303544 -138.25404223 344.14303544 -136.43467712 341.67660522 C-134.26434047 340.05975626 -133.10885997 339.99531353 -130.42016602 339.98681641 C-129.554198 339.97750092 -128.68822998 339.96818542 -127.79602051 339.95858765 C-126.8539978 339.96451935 -125.9119751 339.97045105 -124.94140625 339.9765625 C-123.95579712 339.9724234 -122.97018799 339.9682843 -121.95471191 339.96401978 C-118.7195007 339.95779457 -115.48512678 339.97686505 -112.25 340 C-111.14405487 340.00398804 -110.03810974 340.00797607 -108.89865112 340.01208496 C-89.72442296 340.0932149 -70.79997317 341.07165819 -51.74536133 343.15362549 C-49.71454512 343.37209062 -47.68288576 343.57856116 -45.65039062 343.78076172 C-11.10369674 347.23093363 23.14461754 353.35430923 57.25 359.75 C58.61838013 360.00348206 58.61838013 360.00348206 60.0144043 360.26208496 C62.56213554 360.73631635 65.10749319 361.22151281 67.65234375 361.7109375 C68.7814341 361.91984116 68.7814341 361.91984116 69.93333435 362.13296509 C75.082145 363.144645 75.082145 363.144645 77.3125 365.375 C76.9375 368 76.9375 368 76.3125 370.375 C72.3260937 371.90612211 68.73157865 370.87131477 64.7109375 370.00390625 C63.11627341 369.67718519 61.52154342 369.35078561 59.92675781 369.0246582 C59.07682251 368.84778473 58.22688721 368.67091125 57.35119629 368.48867798 C2.45572785 357.12958518 -55.40490624 346.8696706 -111.6875 348.375 C-110.59953125 348.61734375 -109.5115625 348.8596875 -108.390625 349.109375 C-75.40550521 356.57706452 -75.40550521 356.57706452 -66.9765625 367.203125 C-64.79009472 370.88699193 -64.18310756 374.13216944 -64.6875 378.375 C-66.36006839 384.04541478 -69.5909331 388.33150357 -74.6875 391.375 C-113.48201283 411.74515956 -173.76096134 401.59929777 -215.6875 398.375 C-216.57685242 398.30710266 -217.46620483 398.23920532 -218.38250732 398.16925049 C-243.92430109 396.20246575 -269.38167606 393.3810996 -294.83592987 390.52047348 C-297.24427307 390.25064165 -299.65289156 389.98339569 -302.06158447 389.71670532 C-305.87008082 389.29424917 -309.67747561 388.86293836 -313.4841938 388.424757 C-314.90441547 388.26247277 -316.32495278 388.10292541 -317.74580193 387.94622993 C-319.70453367 387.72953461 -321.66200393 387.50152567 -323.61938477 387.27294922 C-324.7235524 387.14733612 -325.82772003 387.02172302 -326.96534729 386.89230347 C-329.6875 386.375 -329.6875 386.375 -332.6875 384.375 C-332.17948894 379.00835225 -330.76791333 374.83079793 -328.29296875 370.02734375 C-327.77796814 368.99961601 -327.77796814 368.99961601 -327.25256348 367.9511261 C-326.13702401 365.73286316 -325.00666764 363.52257261 -323.875 361.3125 C-323.09502327 359.77268156 -322.31548542 358.23264075 -321.53637695 356.69238281 C-315.93623459 345.65880405 -310.13083711 334.7486987 -304.10693359 323.94042969 C-302.62074312 321.25434618 -301.16093564 318.55524821 -299.70703125 315.8515625 C-293.04416739 303.47366734 -286.06364197 291.341561 -278.6875 279.375 C-278.23503906 278.63846191 -277.78257812 277.90192383 -277.31640625 277.14306641 C-261.43546073 251.38256166 -244.64862917 225.79216575 -225.94824219 201.98291016 C-224.62832099 200.29952498 -223.31762883 198.60922547 -222.0078125 196.91796875 C-215.77156271 188.89026691 -209.30955756 181.08622645 -202.6875 173.375 C-201.62622203 172.13678736 -200.5650263 170.89850422 -199.50390625 169.66015625 C-197.94859511 167.84527359 -196.39278562 166.03084612 -194.83422852 164.21875 C-194.36557373 163.67347656 -193.89691895 163.12820312 -193.4140625 162.56640625 C-192.96063477 162.04062988 -192.50720703 161.51485352 -192.04003906 160.97314453 C-191.10905465 159.87310411 -190.19515686 158.75844819 -189.29589844 157.63232422 C-188.13328017 156.1801145 -186.91473227 154.77303264 -185.6875 153.375 C-185.0275 153.375 -184.3675 153.375 -183.6875 153.375 C-183.41825714 152.78076736 -183.14901428 152.18653473 -182.87161255 151.57429504 C-181.68681728 149.37373197 -180.50324562 147.94301811 -178.74169922 146.1862793 C-178.1470285 145.58853195 -177.55235779 144.99078461 -176.93966675 144.37492371 C-175.97566452 143.42169975 -175.97566452 143.42169975 -174.9921875 142.44921875 C-174.32591339 141.78340286 -173.65963928 141.11758698 -172.97317505 140.43159485 C-171.56162939 139.02306818 -170.14765619 137.61697067 -168.73144531 136.21313477 C-166.58608764 134.08588851 -164.44869566 131.95089557 -162.3125 129.81445312 C-160.93536382 128.44223851 -159.5577736 127.07047937 -158.1796875 125.69921875 C-157.54916473 125.06980881 -156.91864197 124.44039886 -156.26901245 123.79191589 C-151.8965852 119.46495178 -147.35579871 115.37970853 -142.6875 111.375 C-142.15541931 110.91528305 -141.62333862 110.4555661 -141.07513428 109.98191833 C-132.8088171 102.85951597 -124.35565816 96.00164113 -115.6875 89.375 C-115.10806641 88.93188477 -114.52863281 88.48876953 -113.93164062 88.03222656 C-97.37807448 75.45629313 -79.77631428 64.58576733 -61.6875 54.375 C-91.31412622 54.375 -136.3914675 92.87975543 -157.2109375 112.109375 C-159.24903256 113.97387837 -161.31711132 115.78048522 -163.41015625 117.58203125 C-168.05228671 121.63360123 -172.4056373 125.94602859 -176.75 130.3125 C-177.51376953 131.07240234 -178.27753906 131.83230469 -179.06445312 132.61523438 C-183.81312937 137.37203495 -188.31991927 142.26787148 -192.6875 147.375 C-193.67244232 148.50454737 -194.65809024 149.63347996 -195.64453125 150.76171875 C-202.28868319 158.41985146 -208.64241605 166.23399279 -214.6875 174.375 C-215.16767578 175.01856445 -215.64785156 175.66212891 -216.14257812 176.32519531 C-224.90112491 188.10952359 -233.00909408 200.27617641 -240.93115234 212.63525391 C-242.5167643 215.1086675 -244.11104225 217.57624652 -245.70703125 220.04296875 C-258.87358875 240.51556496 -270.95090684 261.68291834 -282.51074219 283.09716797 C-283.13239258 284.24072754 -283.75404297 285.38428711 -284.39453125 286.5625 C-284.9356958 287.56667969 -285.47686035 288.57085937 -286.03442383 289.60546875 C-287.71138494 292.41501636 -289.58567575 294.87191579 -291.6875 297.375 C-293.3375 296.715 -294.9875 296.055 -296.6875 295.375 C-296.18354961 286.87478174 -294.95479684 278.74879617 -293.125 270.4375 C-292.86033936 269.22803711 -292.59567871 268.01857422 -292.32299805 266.77246094 C-284.59533489 232.22421202 -273.02295595 199.10980879 -259.6875 166.375 C-259.28305664 165.37903809 -258.87861328 164.38307617 -258.46191406 163.35693359 C-257.35852506 160.65082842 -256.24535493 157.94911979 -255.125 155.25 C-254.80249268 154.46778076 -254.47998535 153.68556152 -254.14770508 152.87963867 C-251.92662778 147.61412778 -251.92662778 147.61412778 -249.6875 145.375 C-247 145.25 -247 145.25 -243.6875 146.375 C-241.09313187 148.8445889 -238.87050108 151.53968203 -236.6875 154.375 C-235.96821319 150.38032302 -235.49852582 146.46867154 -235.2578125 142.41796875 C-235.18433594 141.30486328 -235.11085938 140.19175781 -235.03515625 139.04492188 C-234.88749609 136.73546509 -234.74679536 134.42555213 -234.61328125 132.11523438 C-233.69541924 118.63510849 -229.82184556 108.52141186 -219.4375 99.4375 C-218.79296875 98.91285156 -218.1484375 98.38820313 -217.484375 97.84765625 C-215.65345162 96.40885971 -215.65345162 96.40885971 -214.078125 94.68359375 C-212.6875 93.375 -212.6875 93.375 -210.6875 93.375 C-210.6875 92.715 -210.6875 92.055 -210.6875 91.375 C-208.86577997 89.53908474 -206.89322074 87.9300761 -204.9140625 86.265625 C-203.49994697 85.06486725 -202.11498981 83.82819435 -200.7734375 82.546875 C-200.18820313 81.99515625 -199.60296875 81.4434375 -199 80.875 C-198.48050781 80.3696875 -197.96101562 79.864375 -197.42578125 79.34375 C-195.6875 78.375 -195.6875 78.375 -190.6875 79.375 C-189.6975 83.005 -188.7075 86.635 -187.6875 90.375 C-186.56977378 86.1906916 -185.5915423 82.0853098 -184.9765625 77.796875 C-184.86570313 77.02859375 -184.75484375 76.2603125 -184.640625 75.46875 C-184.41987546 73.89196758 -184.20910654 72.31375901 -184.0078125 70.734375 C-183.83765625 69.5896875 -183.83765625 69.5896875 -183.6640625 68.421875 C-183.57205566 67.73963867 -183.48004883 67.05740234 -183.38525391 66.35449219 C-177.90387509 50.8041005 -142.12386737 36.42390252 -127.7109375 29.4375 C-103.90871194 18.17502974 -79.2470453 9.62688051 -53.375 4.5625 C-51.89374634 4.27028564 -51.89374634 4.27028564 -50.38256836 3.97216797 C-33.66165276 0.87898254 -16.97548102 -0.03276136 0 0 Z " fill="#000000" transform="translate(383.6875,55.625)"/>
</svg>
